<svg width="770" height="243" viewBox="0 0 770 243" fill="none" xmlns="http://www.w3.org/2000/svg">
<path d="M125.336 116.668C119.24 104.266 121.521 97.5079 121.521 97.5079H122.828V95.7661L125.771 91.516L113.613 85.3325H113.579L101.421 91.516L104.364 95.7661V97.5079H105.671C105.671 97.5079 107.952 104.266 101.856 116.668C96.9092 126.753 93.7391 131.23 92.7288 132.554L89.5935 129.505L88.6529 128.6L54.7568 163.524C52.4402 161.573 49.7926 160.458 46.9708 160.458C44.149 160.458 41.3969 161.625 39.0455 163.645L34.7431 159.465L38.2268 155.877L7.98854 126.544L3.59912 131.073L38.0875 164.551C34.7257 167.93 32.1826 173.156 31.033 179.339H34.0987C33.9941 180.576 33.8548 182.3 33.6109 184.321L30.0924 180.907L0.777344 211.145L4.36552 214.629L5.30612 215.535L33.3497 186.638C32.4439 193.64 30.7021 203.063 27.4448 209.665C24.0134 216.597 22.2019 219.593 21.2962 220.882C20.7562 221.631 20.4775 222.537 20.4775 223.46V242.76H40.8744V225.272H52.6318V242.76H73.8996V223.46C73.8996 222.537 73.6035 221.631 73.0809 220.882C72.1752 219.593 70.3637 216.597 66.9322 209.665C64.8072 205.362 63.3266 199.858 62.299 194.615L85.9879 217.59L88.2697 215.239V241.854H123.037V219.471H124.343V241.854H135.456V219.471H136.762V241.854H138.975V135.497L141.256 132.989H134.829C134.829 132.989 131.45 129.07 125.353 116.651L125.336 116.668ZM123.995 145.948H128.924V153.247H123.995V145.948ZM123.995 154.222H128.924V159.988H123.995V154.222ZM123.995 160.98H128.924V168.279H123.995V160.98ZM123.995 179.322H128.924V186.62H123.995V179.322ZM123.995 187.596H128.924V193.361H123.995V187.596ZM123.995 194.337H128.924V201.635H123.995V194.337ZM118.09 145.948H123.019V153.247H118.09V145.948ZM118.09 154.222H123.019V159.988H118.09V154.222ZM118.09 160.98H123.019V168.279H118.09V160.98ZM118.09 179.322H123.019V186.62H118.09V179.322ZM118.09 187.596H123.019V193.361H118.09V187.596ZM114.136 120.535V114.595H117.567V120.535H114.136ZM117.567 121.51V127.764H114.136V121.51H117.567ZM111.471 101.532C111.471 100.347 112.255 99.3543 113.439 99.3543H113.77C114.955 99.3543 115.686 100.295 115.686 101.479V106.06H111.471V101.532ZM104.19 145.948H109.119V153.247H104.19V145.948ZM104.19 154.222H109.119V159.988H104.19V154.222ZM104.19 160.98H109.119V168.279H104.19V160.98ZM104.19 179.322H109.119V186.62H104.19V179.322ZM104.19 187.596H109.119V193.361H104.19V187.596ZM98.2679 145.948H103.197V153.247H98.2679V145.948ZM98.2679 154.222H103.197V159.988H98.2679V154.222ZM98.2679 160.98H103.197V168.279H98.2679V160.98ZM98.2679 179.322H103.197V186.62H98.2679V179.322ZM98.2679 187.596H103.197V193.361H98.2679V187.596ZM60.261 159.744L63.8492 163.227L88.2349 138.093V211.023L60.6965 184.304C60.47 182.3 60.3133 180.576 60.2262 179.339H62.926C61.759 173.069 59.1637 167.791 55.7322 164.412L60.261 159.744ZM51.308 206.477H43.0517V198.709C43.0517 196.444 44.9154 194.58 47.1798 194.58C49.4442 194.58 51.308 196.444 51.308 198.709V206.477ZM97.6931 235.008H92.7637V227.71H97.6931V235.008ZM97.6931 226.735H92.7637V220.969H97.6931V226.735ZM97.6931 219.976H92.7637V212.678H97.6931V219.976ZM98.2679 194.337H103.197V201.635H98.2679V194.337ZM103.598 235.008H98.6685V227.71H103.598V235.008ZM103.598 226.735H98.6685V220.969H103.598V226.735ZM103.598 219.976H98.6685V212.678H103.598V219.976ZM104.19 194.337H109.119V201.635H104.19V194.337ZM113.039 235.008H108.109V227.71H113.039V235.008ZM113.039 226.735H108.109V220.969H113.039V226.735ZM113.039 219.976H108.109V212.678H113.039V219.976ZM113.161 127.764H109.625V121.51H113.161V127.764ZM113.161 120.535H109.625V114.595H113.161V120.535ZM118.943 235.008H114.014V227.71H118.943V235.008ZM118.943 226.735H114.014V220.969H118.943V226.735ZM118.943 219.976H114.014V212.678H118.943V219.976ZM118.09 201.635V194.337H123.019V201.635H118.09ZM123.019 218.6V212.678H129.447V218.6H123.019ZM133.261 229.417H126.468V220.778H133.261V229.417ZM136.728 218.6H130.3V212.678H136.728V218.6Z" fill="#FEFEFE"/>
<path d="M42.1631 242.777H46.5873H47.7544H51.3077V226.578H42.1631V242.777Z" fill="#FEFEFE"/>
<path d="M202.343 126.318C202.343 124.088 200.531 122.294 198.319 122.294C196.107 122.294 194.295 124.106 194.295 126.318C194.295 126.597 194.33 126.875 194.383 127.137C189.819 123.757 186.231 119.054 184.21 113.533C181.023 104.911 180.692 99.1279 180.814 96.3061H179.49C179.368 92.9966 176.668 90.349 173.324 90.349C169.979 90.349 167.28 92.9966 167.158 96.3061H165.764C165.869 99.1279 165.555 104.911 162.368 113.533C160.33 119.037 156.759 123.757 152.195 127.137C152.248 126.875 152.282 126.597 152.282 126.318C152.282 124.088 150.471 122.294 148.259 122.294C146.047 122.294 144.235 124.106 144.235 126.318C144.235 128.129 145.437 129.645 147.074 130.15C145.942 130.672 144.775 131.108 143.573 131.474V242.62H203.005V131.474C201.803 131.108 200.636 130.655 199.504 130.15C201.141 129.645 202.343 128.129 202.343 126.318ZM156.898 224.192H151.011V213.741H156.898V224.192ZM156.898 212.87H151.011V202.419H156.898V212.87ZM156.898 194.145H151.011V183.694H156.898V194.145ZM156.898 182.823H151.011V172.372H156.898V182.823ZM156.898 164.098H151.011V153.647H156.898V164.098ZM156.898 152.776H151.011V142.325H156.898V152.776ZM162.995 224.192H157.769V213.741H162.995V224.192ZM162.995 212.87H157.769V202.419H162.995V212.87ZM162.995 194.145H157.769V183.694H162.995V194.145ZM162.995 182.823H157.769V172.372H162.995V182.823ZM162.995 164.098H157.769V153.647H162.995V164.098ZM162.995 152.776H157.769V142.325H162.995V152.776ZM169.736 224.192H163.848V213.741H169.736V224.192ZM169.736 212.87H163.848V202.419H169.736V212.87ZM169.736 194.145H163.848V183.694H169.736V194.145ZM169.736 182.823H163.848V172.372H169.736V182.823ZM169.736 164.098H163.848V153.647H169.736V164.098ZM169.736 152.776H163.848V142.325H169.736V152.776ZM172.836 129.505H169.143V122.643H172.836V129.505ZM172.836 121.789H169.143V118.271C169.143 116.146 170.781 114.404 172.836 114.177V121.789ZM173.707 114.177C175.78 114.404 177.4 116.146 177.4 118.271V121.789H173.707V114.177ZM173.707 122.66H177.4V129.523H173.707V122.66ZM182.695 224.192H176.807V213.741H182.695V224.192ZM182.695 212.87H176.807V202.419H182.695V212.87ZM182.695 194.145H176.807V183.694H182.695V194.145ZM182.695 182.823H176.807V172.372H182.695V182.823ZM182.695 164.098H176.807V153.647H182.695V164.098ZM182.695 152.776H176.807V142.325H182.695V152.776ZM188.791 224.192H183.566V213.741H188.791V224.192ZM188.791 212.87H183.566V202.419H188.791V212.87ZM188.791 194.145H183.566V183.694H188.791V194.145ZM188.791 182.823H183.566V172.372H188.791V182.823ZM188.791 164.098H183.566V153.647H188.791V164.098ZM188.791 152.776H183.566V142.325H188.791V152.776ZM195.532 224.192H189.645V213.741H195.532V224.192ZM195.532 212.87H189.645V202.419H195.532V212.87ZM195.532 194.145H189.645V183.694H195.532V194.145ZM195.532 182.823H189.645V172.372H195.532V182.823ZM195.532 164.098H189.645V153.647H195.532V164.098ZM195.532 152.776H189.645V142.325H195.532V152.776Z" fill="#FEFEFE"/>
<path d="M225.143 210.327H213.873V242.185H225.143V210.327Z" fill="#FEFEFE"/>
<path d="M262.435 115.466H255.903V106.757H249.371V98.0479H242.839V89.3387H229.775V98.0479H223.244V106.757H216.712V115.466H210.18V123.305H205.825V242.185H212.793V209.229H226.24V242.185H266.789V123.305H262.435V115.466ZM218.802 200.381H213.089V192.63H218.802V200.381ZM218.802 191.584H213.089V183.049H218.802V191.584ZM218.802 182.004H213.089V174.253H218.802V182.004ZM218.802 164.673H213.089V156.922H218.802V164.673ZM218.802 155.877H213.089V147.342H218.802V155.877ZM218.802 146.297H213.089V138.546H218.802V146.297ZM225.56 200.381H219.847V192.63H225.56V200.381ZM225.56 191.584H219.847V183.049H225.56V191.584ZM225.56 182.004H219.847V174.253H225.56V182.004ZM225.56 164.673H219.847V156.922H225.56V164.673ZM225.56 155.877H219.847V147.342H225.56V155.877ZM225.56 146.297H219.847V138.546H225.56V146.297ZM231.448 107.332H241.167V124.89H231.448V107.332ZM235.785 236.088H230.072V228.337H235.785V236.088ZM235.785 227.292H230.072V218.757H235.785V227.292ZM235.785 217.712H230.072V209.961H235.785V217.712ZM235.785 200.381H230.072V192.63H235.785V200.381ZM235.785 191.584H230.072V183.049H235.785V191.584ZM235.785 182.004H230.072V174.253H235.785V182.004ZM235.785 164.673H230.072V156.922H235.785V164.673ZM235.785 155.877H230.072V147.342H235.785V155.877ZM235.785 146.297H230.072V138.546H235.785V146.297ZM242.543 236.088H236.83V228.337H242.543V236.088ZM242.543 227.292H236.83V218.757H242.543V227.292ZM242.543 217.712H236.83V209.961H242.543V217.712ZM242.543 200.381H236.83V192.63H242.543V200.381ZM242.543 191.584H236.83V183.049H242.543V191.584ZM242.543 182.004H236.83V174.253H242.543V182.004ZM242.543 164.673H236.83V156.922H242.543V164.673ZM242.543 155.877H236.83V147.342H242.543V155.877ZM242.543 146.297H236.83V138.546H242.543V146.297ZM252.768 236.088H247.054V228.337H252.768V236.088ZM252.768 227.292H247.054V218.757H252.768V227.292ZM252.768 217.712H247.054V209.961H252.768V217.712ZM252.768 200.381H247.054V192.63H252.768V200.381ZM252.768 191.584H247.054V183.049H252.768V191.584ZM252.768 182.004H247.054V174.253H252.768V182.004ZM252.768 164.673H247.054V156.922H252.768V164.673ZM252.768 155.877H247.054V147.342H252.768V155.877ZM252.768 146.297H247.054V138.546H252.768V146.297ZM259.526 236.088H253.813V228.337H259.526V236.088ZM259.526 227.292H253.813V218.757H259.526V227.292ZM259.526 217.712H253.813V209.961H259.526V217.712ZM259.526 200.381H253.813V192.63H259.526V200.381ZM259.526 191.584H253.813V183.049H259.526V191.584ZM259.526 182.004H253.813V174.253H259.526V182.004ZM259.526 164.673H253.813V156.922H259.526V164.673ZM259.526 155.877H253.813V147.342H259.526V155.877ZM259.526 146.297H253.813V138.546H259.526V146.297Z" fill="#FEFEFE"/>
<path d="M292.621 141.751C295.182 141.751 297.272 139.66 297.272 137.1C297.272 134.539 295.182 132.449 292.621 132.449C290.061 132.449 287.971 134.539 287.971 137.1C287.971 139.66 290.061 141.751 292.621 141.751ZM289.817 134.923C289.991 134.748 290.252 134.748 290.427 134.923L292.517 136.908L295.008 134.574C295.182 134.417 295.461 134.417 295.617 134.592C295.774 134.766 295.774 135.045 295.6 135.201L292.848 137.779C292.848 137.779 292.656 137.901 292.552 137.901C292.482 137.901 292.395 137.866 292.325 137.831C292.256 137.831 292.169 137.779 292.116 137.727L289.834 135.55C289.66 135.376 289.66 135.114 289.834 134.94L289.817 134.923Z" fill="#FEFEFE"/>
<path d="M281.612 145.008C279.783 145.008 278.181 147.568 278.181 149.101V160.632H285.061V149.101C285.061 147.551 283.458 145.008 281.63 145.008H281.612Z" fill="#FEFEFE"/>
<path d="M288.808 149.101V160.632H295.688V149.101C295.688 147.551 294.085 145.008 292.256 145.008C290.428 145.008 288.825 147.568 288.825 149.101H288.808Z" fill="#FEFEFE"/>
<path d="M296.734 171.309H288.233V188.397H296.734V171.309Z" fill="#FEFEFE"/>
<path d="M299.433 160.65H306.313V149.119C306.313 147.568 304.71 145.025 302.881 145.025C301.053 145.025 299.45 147.586 299.45 149.119V160.65H299.433Z" fill="#FEFEFE"/>
<path d="M311.103 171.309H302.603V188.397H311.103V171.309Z" fill="#FEFEFE"/>
<path d="M309.535 162.182V142.97L303.229 139.138V111.112H306.347V104.075H305.302V99.929H304.431V104.075H300.843V100.73C300.843 99.2846 299.92 98.0653 298.648 97.6124V74.9685H301.069V73.6622H298.648V71.032C298.648 68.158 296.697 65.7194 294.05 64.9704V62.2531C295.635 61.8177 296.767 60.7029 296.767 58.8566C296.767 56.6793 294.137 52.9692 292.778 52.1679V45.9147H297.568V45.0438H292.778V38.9474H291.907V45.0438H287.117V45.9147H291.907V52.1853C290.618 53.0214 287.919 56.6967 287.919 58.8566C287.919 60.6855 289.033 61.8003 290.636 62.2531V64.9704C287.988 65.7194 286.037 68.158 286.037 71.032V73.6622H283.616V74.9685H286.037V97.6124C284.766 98.0827 283.843 99.302 283.843 100.73V104.075H280.899V99.929H280.028V104.075H278.983V111.112H282.101V138.702L275.064 142.97V162.269L269.769 165.474V242.185H314.83V165.474L309.535 162.269V162.182ZM302.863 144.137C305.25 144.137 307.166 147.15 307.166 149.101V161.503H298.544V149.101C298.544 147.133 300.477 144.137 302.846 144.137H302.863ZM298.561 112.348C299.763 112.348 300.756 113.393 300.756 115.135V128.861H296.349V115.135C296.349 113.428 297.342 112.348 298.544 112.348H298.561ZM292.987 82.0404C292.987 80.3334 293.858 79.2535 294.903 79.2535C295.948 79.2535 296.819 80.2986 296.819 82.0404V95.7661H292.97V82.0404H292.987ZM292.517 112.348C293.719 112.348 294.712 113.393 294.712 115.135V128.861H290.305V115.135C290.305 113.428 291.298 112.348 292.5 112.348H292.517ZM287.762 82.0404C287.762 80.3334 288.633 79.2535 289.678 79.2535C290.723 79.2535 291.594 80.2986 291.594 82.0404V95.7661H287.744V82.0404H287.762ZM284.278 115.135C284.278 113.428 285.271 112.348 286.473 112.348C287.675 112.348 288.667 113.393 288.667 115.135V128.861H284.261V115.135H284.278ZM272.991 170.439H283.233V189.268H272.991V170.439ZM278.269 229.452H273.426V223.199H278.269V229.452ZM278.269 222.101H273.426V215.848H278.269V222.101ZM284.208 229.452H279.366V223.199H284.208V229.452ZM284.208 222.101H279.366V215.848H284.208V222.101ZM285.933 161.52H277.311V149.118C277.311 147.15 279.244 144.154 281.613 144.154C283.982 144.154 285.915 147.168 285.915 149.118V161.52H285.933ZM292.621 131.439C295.739 131.439 298.282 133.982 298.282 137.1C298.282 140.218 295.739 142.761 292.621 142.761C289.504 142.761 286.96 140.218 286.96 137.1C286.96 133.982 289.504 131.439 292.621 131.439ZM296.558 149.101V161.503H287.936V149.101C287.936 147.133 289.869 144.137 292.238 144.137C294.607 144.137 296.541 147.15 296.541 149.101H296.558ZM287.361 170.439H297.603V189.268H287.361V170.439ZM296.453 211.703H291.611V205.449H296.453V211.703ZM296.453 204.352H291.611V198.099H296.453V204.352ZM302.393 211.703H297.551V205.449H302.393V211.703ZM302.393 204.352H297.551V198.099H302.393V204.352ZM311.973 170.439V189.268H301.731V170.439H311.973Z" fill="#FEFEFE"/>
<path d="M282.362 171.309H273.862V188.397H282.362V171.309Z" fill="#FEFEFE"/>
<path d="M437.142 204.108C426.325 204.108 422.981 203.516 422.215 203.342C419.759 202.767 417.076 201.705 413.976 200.468C406.242 197.385 396.61 193.553 381.891 193.553C367.173 193.553 357.488 197.437 350.015 200.555C347.141 201.757 344.651 202.802 342.334 203.359C341.585 203.551 338.363 204.143 327.946 204.143C323.662 204.143 320.056 204.039 319.011 204.004H318.593V205.153V242.603H338.415V234.329H338.432C338.694 225.219 344.32 219.523 351.252 219.523C358.185 219.523 363.811 225.219 364.072 234.329H364.09V242.603H368.88V228.233H368.897C369.158 219.123 374.784 213.427 381.717 213.427C388.649 213.427 394.276 219.123 394.537 228.233H394.554V242.603H399.344V234.329H399.362C399.623 225.219 405.249 219.523 412.182 219.523C419.114 219.523 424.74 225.219 425.001 234.329H425.019V242.603H444.841V205.728H444.98V203.986H444.754C444.388 203.986 441.113 204.091 437.09 204.091L437.142 204.108ZM326.954 211.999C323.749 211.999 320.996 211.929 319.603 211.894V205.798C320.944 205.833 323.696 205.902 326.954 205.92V212.016V211.999ZM335.314 211.859C332.893 211.947 330.333 211.981 327.964 211.981V205.885C330.96 205.885 333.364 205.833 335.314 205.763V211.859ZM343.658 211.076C341.881 211.459 339.234 211.685 336.307 211.825V205.728C340.522 205.519 342.229 205.206 342.752 205.066C343.048 204.997 343.362 204.892 343.658 204.805V211.076ZM352.019 208.167C349.475 209.229 347.089 210.187 344.668 210.832V204.509C346.532 203.899 348.5 203.081 350.695 202.157C351.13 201.983 351.566 201.792 352.019 201.6V208.149V208.167ZM360.362 204.875C357.68 205.798 355.276 206.791 353.011 207.731V201.199C355.241 200.294 357.662 199.353 360.362 198.5V204.875ZM368.723 202.61C366.04 203.133 363.602 203.812 361.372 204.544V198.203C363.619 197.524 366.058 196.932 368.723 196.444V202.628V202.61ZM377.066 201.548C374.401 201.722 371.98 202.018 369.716 202.436V196.27C371.98 195.904 374.436 195.626 377.066 195.451V201.548ZM385.427 201.495C384.243 201.443 383.023 201.408 381.752 201.408C380.48 201.408 379.261 201.443 378.076 201.495V195.399C379.313 195.347 380.567 195.295 381.891 195.295C383.11 195.295 384.277 195.329 385.427 195.382V201.478V201.495ZM393.77 202.436C391.489 202.035 389.05 201.722 386.42 201.548V195.434C389.033 195.591 391.489 195.852 393.77 196.218V202.436ZM402.131 204.509C399.867 203.795 397.446 203.15 394.781 202.628V196.409C397.428 196.88 399.867 197.454 402.131 198.099V204.509ZM410.475 207.575C408.193 206.669 405.772 205.728 403.124 204.84V198.395C405.789 199.196 408.228 200.085 410.475 200.956V207.557V207.575ZM418.835 210.605C416.466 209.926 414.063 209.003 411.485 207.975V201.356C412.112 201.6 412.739 201.844 413.349 202.088C415.334 202.872 417.128 203.586 418.835 204.161V210.605ZM427.179 211.737C424.374 211.598 421.884 211.354 420.281 210.988C420.124 210.954 419.985 210.919 419.828 210.867V204.491C420.508 204.7 421.169 204.892 421.814 205.031C422.302 205.153 423.747 205.415 427.179 205.606V211.72V211.737ZM435.54 211.947C433.153 211.947 430.593 211.894 428.189 211.79V205.676C430.088 205.763 432.491 205.833 435.54 205.85V211.947ZM443.883 211.877C442.472 211.912 439.737 211.964 436.532 211.947V205.85C436.741 205.85 436.933 205.85 437.142 205.85C440.051 205.85 442.559 205.798 443.883 205.78V211.877Z" fill="#FEFEFE"/>
<path d="M765.165 129.976V125.482H769.223V121.423H761.246L728.848 101.897V95.3481C729.736 94.3901 730.311 92.7876 730.311 90.9761C730.311 88.0324 728.778 85.646 726.879 85.646C724.981 85.646 723.448 88.0324 723.448 90.9761C723.448 92.7876 724.023 94.3901 724.911 95.3481V101.828H724.807L719.442 107.193H711.725V95.4352H713.519V92.056H703.399V95.4352H705.193V107.193H662.24C662.118 106.409 661.508 105.59 661.404 104.806C661.317 104.109 661.404 103.378 661.578 102.716C662.1 100.8 662.188 98.884 662.188 96.8983C662.188 95.4526 662.118 94.5991 663.355 93.8327C664.051 93.3798 665.584 92.9269 666.072 92.265C666.507 91.6902 666.107 90.6277 665.462 90.3316C665.009 90.6451 664.922 91.2199 664.643 91.6205C664.365 92.0386 663.999 92.2999 663.581 92.5785C663.093 92.8921 662.518 93.5714 661.909 93.6062C660.951 93.6585 660.829 92.4218 660.655 91.6554C660.446 90.7148 659.993 87.5969 658.321 88.311C656.84 88.9555 658.077 91.2896 657.119 92.0734C656.335 92.7179 654.941 92.1082 655.098 93.5191C655.203 94.4597 655.621 95.6964 656.248 96.428C656.561 96.8112 656.875 96.9854 657.276 96.9854C657.815 96.9854 657.937 96.5848 658.303 97.2815C658.773 98.1872 658.164 99.3194 657.746 100.121C656.631 102.211 657.067 104.806 657.136 107.158H654.175L650.291 104.928V92.8921H644.856V101.81L629.807 93.1882V84.6184H626.759V80.2638H624.581V50.9835H627.194V46.9599H629.424V40.8635H625.208C624.006 32.2936 618.903 25.5701 610.681 24.0896V16.5823H612.284C611.744 12.4715 609.967 9.37107 607.773 9.00529V0H606.902V9.04012C604.707 9.40591 602.93 12.5064 602.39 16.6171H603.993V24.0722C595.562 25.4308 590.319 32.2065 589.1 40.8983H584.885V46.9947H587.114V51.0184H589.727V80.2986H587.55V84.6532H584.502V93.1708L569.365 101.845V92.9269H563.931V104.963L560.046 107.193H557.085C557.155 104.824 557.573 102.246 556.476 100.156C556.057 99.3543 555.448 98.2221 555.918 97.3163C556.284 96.6022 556.406 97.0202 556.946 97.0202C557.346 97.0202 557.66 96.8286 557.974 96.4628C558.601 95.7313 559.019 94.4946 559.123 93.554C559.28 92.1431 557.886 92.7527 557.103 92.1082C556.162 91.3418 557.381 88.9904 555.901 88.3459C554.229 87.6143 553.776 90.7496 553.567 91.6902C553.392 92.4566 553.271 93.6933 552.313 93.6411C551.703 93.6062 551.111 92.9443 550.64 92.6134C550.222 92.3347 549.857 92.0734 549.578 91.6554C549.299 91.2373 549.212 90.6799 548.759 90.3664C548.115 90.6625 547.714 91.7076 548.15 92.2999C548.637 92.9617 550.17 93.4146 550.867 93.8675C552.086 94.6339 552.016 95.4874 552.034 96.9331C552.034 98.9188 552.121 100.852 552.643 102.751C552.835 103.413 552.905 104.144 552.818 104.841C552.713 105.625 552.104 106.444 551.982 107.227H509.028V95.47H510.822V92.0908H500.702V95.47H502.496V107.227H494.78L489.415 101.863H489.31V95.3829C490.199 94.4249 490.773 92.8224 490.773 91.0109C490.773 88.0672 489.241 85.6809 487.342 85.6809C485.443 85.6809 483.911 88.0672 483.911 91.0109C483.911 92.8224 484.485 94.4249 485.374 95.3829V101.932L452.976 121.458H444.998V125.517H449.056V130.011H451.373V160.789H448.76V164.412H445.573V168.035H447.454V173.121H450.363V178.782H451.373V209.56H449.056V213.044H446.74V217.834H448.917V242.951H558.13V240.042H562.746V242.951H563.617V240.042H568.233V242.951H572.796V240.042H577.412V242.951H578.283V240.042H582.899V242.951H587.463V240.042H592.079V242.951H592.95V240.042H597.565V242.951H602.129V240.042H606.745V242.951H607.616V240.042H612.232V242.951H616.795V240.042H621.411V242.951H622.282V240.042H626.898V242.951H631.462V240.042H636.077V242.951H636.948V240.042H641.564V242.951H646.128V240.042H650.744V242.951H651.615V240.042H656.23V242.951H765.443V217.834H767.621V213.044H765.304V209.56H762.988V178.782H763.998V173.121H766.907V168.035H768.788V164.412H765.6V160.789H762.988V130.011H765.304L765.165 129.976ZM484.869 129.505H488.196V138.006H484.869V129.505ZM484.869 144.311H488.196V152.097H484.869V144.311ZM484.869 152.968H488.196V160.754H484.869V152.968ZM484.869 178.277H488.196V186.777H484.869V178.277ZM484.869 193.082H488.196V200.868H484.869V193.082ZM484.869 201.739H488.196V209.525H484.869V201.739ZM473.059 118.427C473.059 118.305 473.059 118.184 473.059 118.079C473.059 114.822 473.721 113.306 475.114 113.306C476.508 113.306 477.17 114.822 477.17 118.079C477.17 118.201 477.17 118.305 477.17 118.427V122.712H473.042V118.427H473.059ZM470.934 129.505H474.261V138.006H470.934V129.505ZM470.934 144.311H474.261V152.097H470.934V144.311ZM470.934 152.968H474.261V160.754H470.934V152.968ZM470.934 178.277H474.261V186.777H470.934V178.277ZM470.934 193.082H474.261V200.868H470.934V193.082ZM470.934 201.739H474.261V209.525H470.934V201.739ZM456.999 129.505H460.326V138.006H456.999V129.505ZM456.999 144.311H460.326V152.097H456.999V144.311ZM456.999 152.968H460.326V160.754H456.999V152.968ZM456.999 178.277H460.326V186.777H456.999V178.277ZM456.999 193.082H460.326V200.868H456.999V193.082ZM456.999 201.739H460.326V209.525H456.999V201.739ZM460.361 229.783H456.982V226.63H460.361V229.783ZM460.361 225.864H456.982V222.816H460.361V225.864ZM460.361 222.049H456.982V218.896H460.361V222.049ZM464.507 229.783H461.127V226.63H464.507V229.783ZM464.507 225.864H461.127V222.816H464.507V225.864ZM464.507 222.049H461.127V218.896H464.507V222.049ZM464.507 209.525H461.18V201.739H464.507V209.525ZM464.507 200.868H461.18V193.082H464.507V200.868ZM464.507 186.777H461.18V178.277H464.507V186.777ZM464.507 160.754H461.18V152.968H464.507V160.754ZM464.507 152.097H461.18V144.311H464.507V152.097ZM464.507 138.006H461.18V129.505H464.507V138.006ZM474.296 229.783H470.917V226.63H474.296V229.783ZM474.296 225.864H470.917V222.816H474.296V225.864ZM474.296 222.049H470.917V218.896H474.296V222.049ZM478.441 229.783H475.062V226.63H478.441V229.783ZM478.441 225.864H475.062V222.816H478.441V225.864ZM478.441 222.049H475.062V218.896H478.441V222.049ZM478.441 209.525H475.114V201.739H478.441V209.525ZM478.441 200.868H475.114V193.082H478.441V200.868ZM478.441 186.777H475.114V178.277H478.441V186.777ZM478.441 160.754H475.114V152.968H478.441V160.754ZM478.441 152.097H475.114V144.311H478.441V152.097ZM478.441 138.006H475.114V129.505H478.441V138.006ZM488.23 229.783H484.851V226.63H488.23V229.783ZM488.23 225.864H484.851V222.816H488.23V225.864ZM488.23 222.049H484.851V218.896H488.23V222.049ZM492.376 229.783H488.997V226.63H492.376V229.783ZM492.376 225.864H488.997V222.816H492.376V225.864ZM492.376 222.049H488.997V218.896H492.376V222.049ZM492.376 209.525H489.049V201.739H492.376V209.525ZM492.376 200.868H489.049V193.082H492.376V200.868ZM492.376 186.777H489.049V178.277H492.376V186.777ZM492.376 160.754H489.049V152.968H492.376V160.754ZM492.376 152.097H489.049V144.311H492.376V152.097ZM492.376 138.006H489.049V129.505H492.376V138.006ZM537.124 129.505H540.451V138.006H537.124V129.505ZM537.124 144.311H540.451V152.097H537.124V144.311ZM537.124 152.968H540.451V160.754H537.124V152.968ZM537.124 178.277H540.451V186.777H537.124V178.277ZM537.124 193.082H540.451V200.868H537.124V193.082ZM537.124 201.739H540.451V209.525H537.124V201.739ZM523.189 129.505H526.516V138.006H523.189V129.505ZM523.189 144.311H526.516V152.097H523.189V144.311ZM523.189 152.968H526.516V160.754H523.189V152.968ZM523.189 178.277H526.516V186.777H523.189V178.277ZM523.189 193.082H526.516V200.868H523.189V193.082ZM523.189 201.739H526.516V209.525H523.189V201.739ZM509.254 129.505H512.581V138.006H509.254V129.505ZM509.254 144.311H512.581V152.097H509.254V144.311ZM509.254 152.968H512.581V160.754H509.254V152.968ZM509.254 178.277H512.581V186.777H509.254V178.277ZM509.254 193.082H512.581V200.868H509.254V193.082ZM509.254 201.739H512.581V209.525H509.254V201.739ZM512.616 229.783H509.237V226.63H512.616V229.783ZM512.616 225.864H509.237V222.816H512.616V225.864ZM512.616 222.049H509.237V218.896H512.616V222.049ZM516.762 229.783H513.383V226.63H516.762V229.783ZM516.762 225.864H513.383V222.816H516.762V225.864ZM516.762 222.049H513.383V218.896H516.762V222.049ZM516.762 209.525H513.435V201.739H516.762V209.525ZM516.762 200.868H513.435V193.082H516.762V200.868ZM516.762 186.777H513.435V178.277H516.762V186.777ZM516.762 160.754H513.435V152.968H516.762V160.754ZM516.762 152.097H513.435V144.311H516.762V152.097ZM516.762 138.006H513.435V129.505H516.762V138.006ZM520.733 122.712H516.605V118.427C516.605 118.305 516.605 118.184 516.605 118.079C516.605 114.822 517.267 113.306 518.66 113.306C520.054 113.306 520.716 114.822 520.716 118.079C520.716 118.201 520.716 118.305 520.716 118.427V122.712H520.733ZM526.551 229.783H523.172V226.63H526.551V229.783ZM526.551 225.864H523.172V222.816H526.551V225.864ZM526.551 222.049H523.172V218.896H526.551V222.049ZM530.696 229.783H527.317V226.63H530.696V229.783ZM530.696 225.864H527.317V222.816H530.696V225.864ZM530.696 222.049H527.317V218.896H530.696V222.049ZM530.696 209.525H527.369V201.739H530.696V209.525ZM530.696 200.868H527.369V193.082H530.696V200.868ZM530.696 186.777H527.369V178.277H530.696V186.777ZM530.696 160.754H527.369V152.968H530.696V160.754ZM530.696 152.097H527.369V144.311H530.696V152.097ZM530.696 138.006H527.369V129.505H530.696V138.006ZM540.485 229.783H537.106V226.63H540.485V229.783ZM540.485 225.864H537.106V222.816H540.485V225.864ZM540.485 222.049H537.106V218.896H540.485V222.049ZM544.631 229.783H541.252V226.63H544.631V229.783ZM544.631 225.864H541.252V222.816H544.631V225.864ZM544.631 222.049H541.252V218.896H544.631V222.049ZM544.631 209.525H541.304V201.739H544.631V209.525ZM544.631 200.868H541.304V193.082H544.631V200.868ZM544.631 186.777H541.304V178.277H544.631V186.777ZM544.631 160.754H541.304V152.968H544.631V160.754ZM544.631 152.097H541.304V144.311H544.631V152.097ZM544.631 138.006H541.304V129.505H544.631V138.006ZM545.99 122.712H541.862V118.427C541.862 118.305 541.862 118.184 541.862 118.079C541.862 114.822 542.523 113.306 543.917 113.306C545.31 113.306 545.972 114.822 545.972 118.079C545.972 118.201 545.972 118.305 545.972 118.427V122.712H545.99ZM561.509 129.505H564.836V138.006H561.509V129.505ZM567.85 226.508H563.53V220.325C565.934 220.534 567.31 222.537 567.85 226.508ZM561.509 144.311H564.836V152.097H561.509V144.311ZM561.509 152.968H564.836V160.754H561.509V152.968ZM561.509 178.277H564.836V186.777H561.509V178.277ZM561.509 193.082H564.836V200.868H561.509V193.082ZM562.642 239.137H558.026V233.702H562.642V239.137ZM562.642 232.831H558.026V232.343C558.026 232.065 558.026 231.786 558.026 231.525C558.026 229.975 558.095 228.616 558.235 227.397H562.642V232.831ZM562.642 226.508H558.339C558.932 222.537 560.342 220.551 562.642 220.325V226.508ZM561.509 209.525V201.739H564.836V209.525H561.509ZM568.128 239.137H563.513V233.702H568.128V239.137ZM568.128 232.831H563.513V227.397H567.937C568.059 228.616 568.128 229.975 568.128 231.525C568.128 231.803 568.128 232.082 568.128 232.343V232.831ZM569.017 209.525H565.69V201.739H569.017V209.525ZM569.017 200.868H565.69V193.082H569.017V200.868ZM569.017 186.777H565.69V178.277H569.017V186.777ZM569.017 160.754H565.69V152.968H569.017V160.754ZM569.017 152.097H565.69V144.311H569.017V152.097ZM569.017 138.006H565.69V129.505H569.017V138.006ZM575.583 129.505H578.91V138.006H575.583V129.505ZM582.499 226.508H578.179V220.325C580.582 220.534 581.959 222.537 582.499 226.508ZM575.583 144.311H578.91V152.097H575.583V144.311ZM575.583 152.968H578.91V160.754H575.583V152.968ZM575.583 178.277H578.91V186.777H575.583V178.277ZM575.583 193.082H578.91V200.868H575.583V193.082ZM577.308 239.137H572.692V233.702H577.308V239.137ZM577.308 232.831H572.692V232.343C572.692 232.065 572.692 231.786 572.692 231.525C572.692 229.975 572.762 228.616 572.901 227.397H577.308V232.831ZM577.308 226.508H573.006C573.598 222.537 575.009 220.551 577.308 220.325V226.508ZM575.583 209.525V201.739H578.91V209.525H575.583ZM582.795 239.137H578.179V233.702H582.795V239.137ZM582.795 232.831H578.179V227.397H582.603C582.725 228.616 582.795 229.975 582.795 231.525C582.795 231.803 582.795 232.082 582.795 232.343V232.831ZM583.091 209.525H579.764V201.739H583.091V209.525ZM583.091 200.868H579.764V193.082H583.091V200.868ZM583.091 186.777H579.764V178.277H583.091V186.777ZM583.091 160.754H579.764V152.968H583.091V160.754ZM583.091 152.097H579.764V144.311H583.091V152.097ZM583.091 138.006H579.764V129.505H583.091V138.006ZM589.657 129.505H592.984V138.006H589.657V129.505ZM597.182 144.311V152.097H593.855V144.311H597.182ZM593.855 138.006V129.505H597.182V138.006H593.855ZM597.182 152.968V160.754H593.855V152.968H597.182ZM597.182 178.277V186.777H593.855V178.277H597.182ZM597.182 193.082V200.868H593.855V193.082H597.182ZM597.182 201.739V209.525H593.855V201.739H597.182ZM597.165 226.508H592.845V220.325C595.249 220.534 596.625 222.537 597.165 226.508ZM589.657 144.311H592.984V152.097H589.657V144.311ZM589.657 152.968H592.984V160.754H589.657V152.968ZM589.657 178.277H592.984V186.777H589.657V178.277ZM589.657 193.082H592.984V200.868H589.657V193.082ZM591.974 239.137H587.358V233.702H591.974V239.137ZM591.974 232.831H587.358V232.343C587.358 232.065 587.358 231.786 587.358 231.525C587.358 229.975 587.428 228.616 587.567 227.397H591.974V232.831ZM591.974 226.508H587.672C588.264 222.537 589.675 220.551 591.974 220.325V226.508ZM589.657 209.525V201.739H592.984V209.525H589.657ZM597.461 239.137H592.845V233.702H597.461V239.137ZM597.461 232.831H592.845V227.397H597.269C597.391 228.616 597.461 229.975 597.461 231.525C597.461 231.803 597.461 232.082 597.461 232.343V232.831ZM599.656 75.0208H596.346C596.242 75.0557 596.155 75.0905 596.05 75.0905C595.946 75.0905 595.841 75.0557 595.754 75.0208H592.444V63.3854C592.444 63.1764 592.444 62.9673 592.444 62.7757C592.444 57.0625 593.611 54.3975 596.05 54.3975C598.489 54.3975 599.656 57.0625 599.656 62.7757C599.656 62.9848 599.656 63.1938 599.656 63.3854V75.0208ZM622.021 129.505H625.348V138.006H622.021V129.505ZM626.48 226.508H622.16V220.325C624.564 220.534 625.94 222.537 626.48 226.508ZM622.021 144.311H625.348V152.097H622.021V144.311ZM622.021 152.968H625.348V160.754H622.021V152.968ZM622.021 178.277H625.348V186.777H622.021V178.277ZM622.021 193.082H625.348V200.868H622.021V193.082ZM611.256 152.968V160.754H607.929V152.968H611.256ZM607.929 152.097V144.311H611.256V152.097H607.929ZM611.256 178.277V186.777H607.929V178.277H611.256ZM611.256 193.082V200.868H607.929V193.082H611.256ZM611.256 201.739V209.525H607.929V201.739H611.256ZM611.831 226.508H607.511V220.325C609.915 220.534 611.291 222.537 611.831 226.508ZM611.256 138.006H607.929V129.505H611.256V138.006ZM605.508 22.5568C605.508 22.4697 605.508 22.3826 605.508 22.2781C605.508 19.7524 606.222 18.5854 607.111 18.5854C607.999 18.5854 608.713 19.7698 608.713 22.2781C608.713 22.3652 608.713 22.4523 608.713 22.5568V23.8806C608.191 23.8457 607.668 23.8109 607.111 23.8109C606.553 23.8109 606.031 23.8457 605.508 23.8806V22.5568ZM606.623 239.137H602.007V233.702H606.623V239.137ZM606.623 232.831H602.007V232.343C602.007 232.065 602.007 231.786 602.007 231.525C602.007 229.975 602.077 228.616 602.216 227.397H606.623V232.831ZM606.623 226.508H602.321C602.913 222.537 604.324 220.551 606.623 220.325V226.508ZM607.058 209.525H603.732V201.739H607.058V209.525ZM607.058 200.868H603.732V193.082H607.058V200.868ZM607.058 186.777H603.732V178.277H607.058V186.777ZM607.058 160.754H603.732V152.968H607.058V160.754ZM607.058 152.097H603.732V144.311H607.058V152.097ZM607.058 138.006H603.732V129.505H607.058V138.006ZM607.215 74.9686C607.111 74.9686 607.006 74.9338 606.919 74.8989H603.61V63.2635C603.61 63.0544 603.61 62.8454 603.61 62.6538C603.61 56.9406 604.777 54.2756 607.215 54.2756C609.654 54.2756 610.821 56.9406 610.821 62.6538C610.821 62.8628 610.821 63.0719 610.821 63.2635V74.8989H607.511C607.407 74.9338 607.32 74.9686 607.215 74.9686ZM612.11 239.137H607.494V233.702H612.11V239.137ZM612.11 232.831H607.494V227.397H611.918C612.04 228.616 612.11 229.975 612.11 231.525C612.11 231.803 612.11 232.082 612.11 232.343V232.831ZM621.289 239.137H616.673V233.702H621.289V239.137ZM621.289 232.831H616.673V232.343C616.673 232.065 616.673 231.786 616.673 231.525C616.673 229.975 616.743 228.616 616.882 227.397H621.289V232.831ZM621.289 226.508H616.987C617.579 222.537 618.99 220.551 621.289 220.325V226.508ZM621.15 144.311V152.097H617.823V144.311H621.15ZM617.823 138.006V129.505H621.15V138.006H617.823ZM621.15 152.968V160.754H617.823V152.968H621.15ZM621.15 178.277V186.777H617.823V178.277H621.15ZM621.15 193.082V200.868H617.823V193.082H621.15ZM621.15 201.739V209.525H617.823V201.739H621.15ZM621.986 75.1254H618.676C618.572 75.1602 618.485 75.195 618.38 75.195C618.276 75.195 618.171 75.1602 618.084 75.1254H614.775V63.4899C614.775 63.2809 614.775 63.0719 614.775 62.8802C614.775 57.167 615.942 54.502 618.38 54.502C620.819 54.502 621.986 57.167 621.986 62.8802C621.986 63.0893 621.986 63.2983 621.986 63.4899V75.1254ZM622.021 209.525V201.739H625.348V209.525H622.021ZM626.776 239.137H622.16V233.702H626.776V239.137ZM626.776 232.831H622.16V227.397H626.584C626.706 228.616 626.776 229.975 626.776 231.525C626.776 231.803 626.776 232.082 626.776 232.343V232.831ZM636.095 129.505H639.422V138.006H636.095V129.505ZM641.146 226.508H636.826V220.325C639.23 220.534 640.606 222.537 641.146 226.508ZM636.095 144.311H639.422V152.097H636.095V144.311ZM636.095 152.968H639.422V160.754H636.095V152.968ZM636.095 178.277H639.422V186.777H636.095V178.277ZM636.095 193.082H639.422V200.868H636.095V193.082ZM631.897 129.505H635.224V138.006H631.897V129.505ZM631.897 144.311H635.224V152.097H631.897V144.311ZM631.897 152.968H635.224V160.754H631.897V152.968ZM631.897 178.277H635.224V186.777H631.897V178.277ZM631.897 193.082H635.224V200.868H631.897V193.082ZM631.897 201.739H635.224V209.525H631.897V201.739ZM635.955 239.137H631.34V233.702H635.955V239.137ZM635.955 232.831H631.34V232.343C631.34 232.065 631.34 231.786 631.34 231.525C631.34 229.975 631.409 228.616 631.549 227.397H635.955V232.831ZM635.955 226.508H631.653C632.245 222.537 633.656 220.551 635.955 220.325V226.508ZM636.095 209.525V201.739H639.422V209.525H636.095ZM641.442 239.137H636.826V233.702H641.442V239.137ZM641.442 232.831H636.826V227.397H641.251C641.373 228.616 641.442 229.975 641.442 231.525C641.442 231.803 641.442 232.082 641.442 232.343V232.831ZM655.812 226.508H651.493V220.325C653.896 220.534 655.272 222.537 655.812 226.508ZM650.169 129.505H653.496V138.006H650.169V129.505ZM650.169 144.311H653.496V152.097H650.169V144.311ZM650.169 152.968H653.496V160.754H650.169V152.968ZM650.169 178.277H653.496V186.777H650.169V178.277ZM650.169 193.082H653.496V200.868H650.169V193.082ZM645.988 129.505H649.315V138.006H645.988V129.505ZM645.988 144.311H649.315V152.097H645.988V144.311ZM645.988 152.968H649.315V160.754H645.988V152.968ZM645.988 178.277H649.315V186.777H645.988V178.277ZM645.988 193.082H649.315V200.868H645.988V193.082ZM645.988 209.525V201.739H649.315V209.525H645.988ZM650.604 239.137H645.988V233.702H650.604V239.137ZM650.604 232.831H645.988V232.343C645.988 232.065 645.988 231.786 645.988 231.525C645.988 229.975 646.058 228.616 646.197 227.397H650.604V232.831ZM650.604 226.508H646.302C646.894 222.537 648.305 220.551 650.604 220.325V226.508ZM650.169 209.525V201.739H653.496V209.525H650.169ZM656.091 239.137H651.475V233.702H656.091V239.137ZM656.091 232.831H651.475V227.397H655.899C656.021 228.616 656.091 229.975 656.091 231.525C656.091 231.803 656.091 232.082 656.091 232.343V232.831ZM697.373 200.868V193.082H700.699V200.868H697.373ZM700.682 201.739V209.525H697.355V201.739H700.682ZM697.373 186.777V178.277H700.699V186.777H697.373ZM697.373 160.754V152.968H700.699V160.754H697.373ZM697.373 152.097V144.311H700.699V152.097H697.373ZM697.373 138.006V129.505H700.699V138.006H697.373ZM683.438 129.505H686.765V138.006H683.438V129.505ZM683.438 144.311H686.765V152.097H683.438V144.311ZM683.438 152.968H686.765V160.754H683.438V152.968ZM683.438 178.277H686.765V186.777H683.438V178.277ZM683.438 193.082H686.765V200.868H683.438V193.082ZM683.438 201.739H686.765V209.525H683.438V201.739ZM669.503 200.868V193.082H672.83V200.868H669.503ZM672.813 201.739V209.525H669.486V201.739H672.813ZM669.503 186.777V178.277H672.83V186.777H669.503ZM669.503 160.754V152.968H672.83V160.754H669.503ZM669.503 152.097V144.311H672.83V152.097H669.503ZM669.503 138.006V129.505H672.83V138.006H669.503ZM668.145 118.427C668.145 118.305 668.145 118.184 668.145 118.079C668.145 114.822 668.754 113.306 670.2 113.306C671.646 113.306 672.255 114.822 672.255 118.079C672.255 118.201 672.255 118.305 672.255 118.427V122.712H668.127V118.427H668.145ZM672.865 229.783H669.486V226.63H672.865V229.783ZM672.865 225.864H669.486V222.816H672.865V225.864ZM672.865 222.049H669.486V218.896H672.865V222.049ZM677.011 229.783H673.631V226.63H677.011V229.783ZM677.011 225.864H673.631V222.816H677.011V225.864ZM677.011 222.049H673.631V218.896H677.011V222.049ZM677.011 209.525H673.684V201.739H677.011V209.525ZM677.011 200.868H673.684V193.082H677.011V200.868ZM677.011 186.777H673.684V178.277H677.011V186.777ZM677.011 160.754H673.684V152.968H677.011V160.754ZM677.011 152.097H673.684V144.311H677.011V152.097ZM677.011 138.006H673.684V129.505H677.011V138.006ZM686.8 229.783H683.42V226.63H686.8V229.783ZM686.8 225.864H683.42V222.816H686.8V225.864ZM686.8 222.049H683.42V218.896H686.8V222.049ZM690.945 229.783H687.566V226.63H690.945V229.783ZM690.945 225.864H687.566V222.816H690.945V225.864ZM690.945 222.049H687.566V218.896H690.945V222.049ZM690.945 209.525H687.618V201.739H690.945V209.525ZM690.945 200.868H687.618V193.082H690.945V200.868ZM690.945 186.777H687.618V178.277H690.945V186.777ZM690.945 160.754H687.618V152.968H690.945V160.754ZM690.945 152.097H687.618V144.311H690.945V152.097ZM690.945 138.006H687.618V129.505H690.945V138.006ZM693.401 118.427C693.401 118.305 693.401 118.184 693.401 118.079C693.401 114.822 694.011 113.306 695.457 113.306C696.902 113.306 697.512 114.822 697.512 118.079C697.512 118.201 697.512 118.305 697.512 118.427V122.712H693.384V118.427H693.401ZM700.734 229.783H697.355V226.63H700.734V229.783ZM700.734 225.864H697.355V222.816H700.734V225.864ZM700.734 222.049H697.355V218.896H700.734V222.049ZM704.88 229.783H701.501V226.63H704.88V229.783ZM704.88 225.864H701.501V222.816H704.88V225.864ZM704.88 222.049H701.501V218.896H704.88V222.049ZM704.88 209.525H701.553V201.739H704.88V209.525ZM704.88 200.868H701.553V193.082H704.88V200.868ZM704.88 186.777H701.553V178.277H704.88V186.777ZM704.88 160.754H701.553V152.968H704.88V160.754ZM704.88 152.097H701.553V144.311H704.88V152.097ZM704.88 138.006H701.553V129.505H704.88V138.006ZM749.628 129.505H752.955V138.006H749.628V129.505ZM749.628 144.311H752.955V152.097H749.628V144.311ZM749.628 152.968H752.955V160.754H749.628V152.968ZM749.628 178.277H752.955V186.777H749.628V178.277ZM749.628 193.082H752.955V200.868H749.628V193.082ZM749.628 201.739H752.955V209.525H749.628V201.739ZM736.947 118.427C736.947 118.305 736.947 118.184 736.947 118.079C736.947 114.822 737.557 113.306 739.002 113.306C740.448 113.306 741.058 114.822 741.058 118.079C741.058 118.201 741.058 118.305 741.058 118.427V122.712H736.93V118.427H736.947ZM735.693 129.505H739.02V138.006H735.693V129.505ZM735.693 144.311H739.02V152.097H735.693V144.311ZM735.693 152.968H739.02V160.754H735.693V152.968ZM735.693 178.277H739.02V186.777H735.693V178.277ZM735.693 193.082H739.02V200.868H735.693V193.082ZM735.693 201.739H739.02V209.525H735.693V201.739ZM721.758 129.505H725.085V138.006H721.758V129.505ZM721.758 144.311H725.085V152.097H721.758V144.311ZM721.758 152.968H725.085V160.754H721.758V152.968ZM721.758 178.277H725.085V186.777H721.758V178.277ZM721.758 193.082H725.085V200.868H721.758V193.082ZM721.758 201.739H725.085V209.525H721.758V201.739ZM725.12 229.783H721.741V226.63H725.12V229.783ZM725.12 225.864H721.741V222.816H725.12V225.864ZM725.12 222.049H721.741V218.896H725.12V222.049ZM729.266 229.783H725.886V226.63H729.266V229.783ZM729.266 225.864H725.886V222.816H729.266V225.864ZM729.266 222.049H725.886V218.896H729.266V222.049ZM729.266 209.525H725.939V201.739H729.266V209.525ZM729.266 200.868H725.939V193.082H729.266V200.868ZM729.266 186.777H725.939V178.277H729.266V186.777ZM729.266 160.754H725.939V152.968H729.266V160.754ZM729.266 152.097H725.939V144.311H729.266V152.097ZM729.266 138.006H725.939V129.505H729.266V138.006ZM739.055 229.783H735.676V226.63H739.055V229.783ZM739.055 225.864H735.676V222.816H739.055V225.864ZM739.055 222.049H735.676V218.896H739.055V222.049ZM743.2 229.783H739.821V226.63H743.2V229.783ZM743.2 225.864H739.821V222.816H743.2V225.864ZM743.2 222.049H739.821V218.896H743.2V222.049ZM743.2 209.525H739.873V201.739H743.2V209.525ZM743.2 200.868H739.873V193.082H743.2V200.868ZM743.2 186.777H739.873V178.277H743.2V186.777ZM743.2 160.754H739.873V152.968H743.2V160.754ZM743.2 152.097H739.873V144.311H743.2V152.097ZM743.2 138.006H739.873V129.505H743.2V138.006ZM752.989 229.783H749.61V226.63H752.989V229.783ZM752.989 225.864H749.61V222.816H752.989V225.864ZM752.989 222.049H749.61V218.896H752.989V222.049ZM757.135 229.783H753.756V226.63H757.135V229.783ZM757.135 225.864H753.756V222.816H757.135V225.864ZM757.135 222.049H753.756V218.896H757.135V222.049ZM757.135 209.525H753.808V201.739H757.135V209.525ZM757.135 200.868H753.808V193.082H757.135V200.868ZM757.135 186.777H753.808V178.277H757.135V186.777ZM757.135 160.754H753.808V152.968H757.135V160.754ZM757.135 152.097H753.808V144.311H757.135V152.097ZM757.135 138.006H753.808V129.505H757.135V138.006Z" fill="#FEFEFE"/>
</svg>
