<svg width="64" height="65" viewBox="0 0 64 65" fill="none" xmlns="http://www.w3.org/2000/svg">
<path d="M56 32.772C56 27.7573 54.4292 22.8686 51.5083 18.7925C48.5874 14.7164 44.4631 11.6576 39.7145 10.0456C34.966 8.43375 29.8319 8.34973 25.0332 9.8054C20.2345 11.2611 16.0122 14.1833 12.9595 18.1617C9.9068 22.1401 8.17692 26.9748 8.01285 31.9867C7.84878 36.9987 9.25874 41.9361 12.0447 46.1057C14.8307 50.2752 18.8528 53.4673 23.546 55.2337C28.2392 57.0001 33.3679 57.2521 38.2117 55.9542" stroke="white" stroke-width="4" stroke-linecap="round"/>
<circle cx="31.9999" cy="32.7721" r="10.6667" stroke="white" stroke-width="4"/>
<path d="M42.6667 24.772V36.772C42.6667 40.4539 45.6515 43.4386 49.3334 43.4386V43.4386C53.0153 43.4386 56.0001 40.4539 56.0001 36.772V32.772" stroke="white" stroke-width="4" stroke-linecap="round"/>
</svg>
