<svg width="49" height="49" viewBox="0 0 49 49" fill="none" xmlns="http://www.w3.org/2000/svg">
<g clip-path="url(#clip0_143_434)">
<path d="M24.5005 4.43467C30.913 4.43467 31.6724 4.46279 34.1942 4.57529C36.538 4.67842 37.8036 5.07217 38.6474 5.40029C39.763 5.83154 40.5692 6.35654 41.4036 7.19092C42.2474 8.03467 42.763 8.83154 43.1942 9.94717C43.5224 10.7909 43.9161 12.0659 44.0192 14.4003C44.1317 16.9315 44.1599 17.6909 44.1599 24.094C44.1599 30.5065 44.1317 31.2659 44.0192 33.7878C43.9161 36.1315 43.5224 37.3972 43.1942 38.2409C42.763 39.3565 42.238 40.1628 41.4036 40.9972C40.5599 41.8409 39.763 42.3565 38.6474 42.7878C37.8036 43.1159 36.5286 43.5097 34.1942 43.6128C31.663 43.7253 30.9036 43.7534 24.5005 43.7534C18.088 43.7534 17.3286 43.7253 14.8067 43.6128C12.463 43.5097 11.1974 43.1159 10.3536 42.7878C9.23799 42.3565 8.43174 41.8315 7.59736 40.9972C6.75361 40.1534 6.23799 39.3565 5.80674 38.2409C5.47861 37.3972 5.08486 36.1222 4.98174 33.7878C4.86924 31.2565 4.84111 30.4972 4.84111 24.094C4.84111 17.6815 4.86924 16.9222 4.98174 14.4003C5.08486 12.0565 5.47861 10.7909 5.80674 9.94717C6.23799 8.83154 6.76299 8.02529 7.59736 7.19092C8.44111 6.34717 9.23799 5.83154 10.3536 5.40029C11.1974 5.07217 12.4724 4.67842 14.8067 4.57529C17.3286 4.46279 18.088 4.43467 24.5005 4.43467ZM24.5005 0.112793C17.9849 0.112793 17.1692 0.140918 14.6099 0.253418C12.0599 0.365918 10.3067 0.778418 8.78799 1.36904C7.20361 1.98779 5.86299 2.80342 4.53174 4.14404C3.19111 5.47529 2.37549 6.81592 1.75674 8.39092C1.16611 9.91904 0.753613 11.6628 0.641113 14.2128C0.528613 16.7815 0.500488 17.5972 0.500488 24.1128C0.500488 30.6284 0.528613 31.444 0.641113 34.0034C0.753613 36.5534 1.16611 38.3065 1.75674 39.8253C2.37549 41.4097 3.19111 42.7503 4.53174 44.0815C5.86299 45.4128 7.20361 46.2378 8.77861 46.8472C10.3067 47.4378 12.0505 47.8503 14.6005 47.9628C17.1599 48.0753 17.9755 48.1034 24.4911 48.1034C31.0067 48.1034 31.8224 48.0753 34.3817 47.9628C36.9317 47.8503 38.6849 47.4378 40.2036 46.8472C41.7786 46.2378 43.1192 45.4128 44.4505 44.0815C45.7817 42.7503 46.6067 41.4097 47.2161 39.8347C47.8067 38.3065 48.2192 36.5628 48.3317 34.0128C48.4442 31.4534 48.4724 30.6378 48.4724 24.1222C48.4724 17.6065 48.4442 16.7909 48.3317 14.2315C48.2192 11.6815 47.8067 9.92842 47.2161 8.40967C46.6255 6.81592 45.8099 5.47529 44.4692 4.14404C43.138 2.81279 41.7974 1.98779 40.2224 1.37842C38.6942 0.787793 36.9505 0.375293 34.4005 0.262793C31.8317 0.140918 31.0161 0.112793 24.5005 0.112793Z" fill="white"/>
<path d="M24.5005 11.7847C17.6942 11.7847 12.1724 17.3065 12.1724 24.1128C12.1724 30.919 17.6942 36.4409 24.5005 36.4409C31.3067 36.4409 36.8286 30.919 36.8286 24.1128C36.8286 17.3065 31.3067 11.7847 24.5005 11.7847ZM24.5005 32.1097C20.0849 32.1097 16.5036 28.5284 16.5036 24.1128C16.5036 19.6972 20.0849 16.1159 24.5005 16.1159C28.9161 16.1159 32.4974 19.6972 32.4974 24.1128C32.4974 28.5284 28.9161 32.1097 24.5005 32.1097Z" fill="white"/>
<path d="M40.1942 11.2971C40.1942 12.8908 38.9005 14.1752 37.3161 14.1752C35.7224 14.1752 34.438 12.8815 34.438 11.2971C34.438 9.70332 35.7317 8.41895 37.3161 8.41895C38.9005 8.41895 40.1942 9.7127 40.1942 11.2971Z" fill="white"/>
</g>
<defs>
<clipPath id="clip0_143_434">
<rect width="48" height="48" fill="white" transform="translate(0.500488 0.112793)"/>
</clipPath>
</defs>
</svg>
