<svg width="49" height="49" viewBox="0 0 49 49" fill="none" xmlns="http://www.w3.org/2000/svg">
<g clip-path="url(#clip0_142_411)">
<path d="M44.9469 0.729004H4.04375C2.08437 0.729004 0.5 2.27588 0.5 4.18838V45.2603C0.5 47.1728 2.08437 48.729 4.04375 48.729H44.9469C46.9062 48.729 48.5 47.1728 48.5 45.2696V4.18838C48.5 2.27588 46.9062 0.729004 44.9469 0.729004ZM14.7406 41.6321H7.61563V18.7196H14.7406V41.6321ZM11.1781 15.5978C8.89062 15.5978 7.04375 13.7509 7.04375 11.4728C7.04375 9.19463 8.89062 7.34775 11.1781 7.34775C13.4563 7.34775 15.3031 9.19463 15.3031 11.4728C15.3031 13.7415 13.4563 15.5978 11.1781 15.5978ZM41.4031 41.6321H34.2875V30.4946C34.2875 27.8415 34.2406 24.4196 30.5844 24.4196C26.8812 24.4196 26.3187 27.3165 26.3187 30.3071V41.6321H19.2125V18.7196H26.0375V21.8509H26.1312C27.0781 20.0509 29.4031 18.1478 32.8625 18.1478C40.0719 18.1478 41.4031 22.8915 41.4031 29.0603V41.6321Z" fill="white"/>
</g>
<defs>
<clipPath id="clip0_142_411">
<rect width="48" height="48" fill="white" transform="translate(0.5 0.729004)"/>
</clipPath>
</defs>
</svg>
