<svg width="182" height="25" viewBox="0 0 182 25" fill="none" xmlns="http://www.w3.org/2000/svg">
<path d="M10.4516 24.513C7.48067 24.513 5.16166 23.8397 3.49454 22.4932C1.82742 21.1467 0.983173 19.1376 0.9618 16.4659H3.75102C3.81514 20.2062 6.04865 22.0764 10.4516 22.0764C12.311 22.0764 13.7324 21.7131 14.7155 20.9864C15.7201 20.2597 16.2224 19.2017 16.2224 17.8124C16.2224 16.7224 15.8056 15.8781 14.972 15.2797C14.1598 14.6599 12.7278 14.1255 10.676 13.6767L8.6562 13.2278C6.34788 12.6935 4.61664 11.9241 3.46248 10.9195C2.30832 9.8936 1.73124 8.46158 1.73124 6.62348C1.73124 4.80674 2.43656 3.36404 3.8472 2.29538C5.25784 1.20534 7.14938 0.660318 9.52182 0.660318C11.1248 0.660318 12.5141 0.852678 13.6896 1.2374C14.8865 1.62212 15.8163 2.16714 16.4788 2.87246C17.1414 3.5564 17.6223 4.30447 17.9215 5.11666C18.2421 5.92885 18.4131 6.82653 18.4345 7.8097H15.6773C15.5491 6.18533 15.0148 4.9991 14.0743 4.25104C13.1553 3.4816 11.6378 3.09688 9.52182 3.09688C7.91882 3.09688 6.67917 3.40679 5.80286 4.02662C4.94793 4.64644 4.52046 5.51206 4.52046 6.62348C4.52046 7.73489 4.89449 8.60051 5.64256 9.22034C6.36925 9.84017 7.77989 10.3852 9.87448 10.8554L11.8943 11.3042C14.4163 11.8599 16.233 12.6614 17.3445 13.7087C18.4559 14.7347 19.0116 16.1026 19.0116 17.8124C19.0116 19.8856 18.2528 21.5207 16.7353 22.7176C15.2178 23.9145 13.1232 24.513 10.4516 24.513ZM18.2216 1.17328H36.5279V3.60984H28.7693V24H25.9801V3.60984H18.2216V1.17328ZM55.6291 15.5362C55.6291 18.3788 54.849 20.5803 53.2887 22.1405C51.7285 23.7008 49.5163 24.4809 46.6523 24.4809C43.7883 24.4809 41.5761 23.7008 40.0159 22.1405C38.4556 20.5803 37.6755 18.3788 37.6755 15.5362V1.17328H40.3686V15.5362C40.3686 19.8749 42.4631 22.0443 46.6523 22.0443C50.8415 22.0443 52.9361 19.8749 52.9361 15.5362V1.17328H55.6291V15.5362ZM58.8326 1.17328H66.527C69.9895 1.17328 72.7253 2.17783 74.7344 4.18692C76.7221 6.19601 77.7159 8.99592 77.7159 12.5866C77.7159 16.1346 76.7221 18.9238 74.7344 20.9543C72.7039 22.9848 69.9681 24 66.527 24H58.8326V1.17328ZM61.5256 21.5634H66.527C69.22 21.5634 71.2826 20.7726 72.7146 19.191C74.168 17.6094 74.8947 15.4079 74.8947 12.5866C74.8947 9.76536 74.168 7.5639 72.7146 5.98228C71.2826 4.40065 69.22 3.60984 66.527 3.60984H61.5256V21.5634ZM82.9883 24H80.2953V1.17328H82.9883V24ZM104.432 21.2108C102.423 23.4122 99.7728 24.513 96.4813 24.513C93.1898 24.513 90.5502 23.4122 88.5625 21.2108C86.5534 19.0521 85.5489 16.1774 85.5489 12.5866C85.5489 9.01729 86.5534 6.13189 88.5625 3.93044C90.5502 1.75036 93.1898 0.660318 96.4813 0.660318C99.7728 0.660318 102.423 1.75036 104.432 3.93044C106.42 6.15327 107.414 9.03867 107.414 12.5866C107.414 16.156 106.42 19.0307 104.432 21.2108ZM90.5823 19.4795C92.057 21.1894 94.0234 22.0443 96.4813 22.0443C98.9393 22.0443 100.906 21.1894 102.38 19.4795C103.855 17.791 104.592 15.4934 104.592 12.5866C104.592 9.67987 103.855 7.38223 102.38 5.69374C100.906 3.98387 98.9393 3.12894 96.4813 3.12894C94.0234 3.12894 92.057 3.98387 90.5823 5.69374C89.1075 7.38223 88.3701 9.67987 88.3701 12.5866C88.3701 15.4934 89.1075 17.791 90.5823 19.4795ZM125.556 24.513C122.521 24.513 120.063 23.7115 118.182 22.1085C116.259 20.5055 115.297 18.2185 115.297 15.2476V1.17328H121.709V15.3117C121.709 16.5086 122.04 17.4277 122.703 18.0689C123.387 18.7101 124.338 19.0307 125.556 19.0307C126.775 19.0307 127.715 18.7101 128.378 18.0689C129.061 17.4277 129.403 16.5086 129.403 15.3117V1.17328H135.815V15.2476C135.815 18.2613 134.886 20.5589 133.026 22.1405C131.145 23.7221 128.655 24.513 125.556 24.513ZM154.305 11.7531C155.481 12.1805 156.421 12.9072 157.127 13.9332C157.853 14.9591 158.217 16.0705 158.217 17.2674C158.217 19.4047 157.49 21.0612 156.037 22.2367C154.605 23.4122 152.467 24 149.625 24H138.051V1.17328H149.4C152.179 1.17328 154.188 1.72899 155.427 2.8404C156.667 3.95181 157.287 5.33039 157.287 6.97614C157.287 9.24171 156.293 10.834 154.305 11.7531ZM148.951 6.17464H144.463V10.086H148.951C149.763 10.1501 150.33 9.84017 150.65 9.15622C150.992 8.47227 150.992 7.78833 150.65 7.10438C150.33 6.42043 149.763 6.11052 148.951 6.17464ZM144.463 18.9666H149.272C150.811 18.9666 151.58 18.2719 151.58 16.8827C151.58 15.4934 150.811 14.7988 149.272 14.7988H144.463V18.9666ZM181.799 24H175.002L174.04 21.0184H165.096L164.134 24H157.594L165.705 1.17328H173.399L181.799 24ZM168.43 10.4707L166.763 15.7285H172.309L170.61 10.4707C170.012 8.63257 169.648 7.42498 169.52 6.8479C168.986 8.62189 168.622 9.82948 168.43 10.4707Z" fill="white"/>
</svg>
