<svg width="87" height="86" viewBox="0 0 87 86" fill="none" xmlns="http://www.w3.org/2000/svg">
<path d="M11.104 17.1417C11.104 14.9015 11.104 13.7814 11.54 12.9257C11.9235 12.1731 12.5354 11.5612 13.288 11.1777C14.1437 10.7417 15.2638 10.7417 17.504 10.7417H69.204C71.4442 10.7417 72.5643 10.7417 73.42 11.1777C74.1726 11.5612 74.7845 12.1731 75.168 12.9257C75.604 13.7814 75.604 14.9015 75.604 17.1417V68.8417C75.604 71.0819 75.604 72.202 75.168 73.0577C74.7845 73.8103 74.1726 74.4222 73.42 74.8057C72.5643 75.2417 71.4442 75.2417 69.204 75.2417H17.504C15.2638 75.2417 14.1437 75.2417 13.288 74.8057C12.5354 74.4222 11.9235 73.8103 11.54 73.0577C11.104 72.202 11.104 71.0819 11.104 68.8417V17.1417Z" fill="url(#paint0_linear_104_294)" fill-opacity="0.2" stroke="white" stroke-opacity="0.3"/>
<path fill-rule="evenodd" clip-rule="evenodd" d="M42.3539 43.9917V57.3251H44.3539V43.9917H57.6872V41.9917H44.3539V28.6584H42.3539V41.9917H29.0205V43.9917H42.3539Z" fill="white" fill-opacity="0.3"/>
<defs>
<linearGradient id="paint0_linear_104_294" x1="43.354" y1="75.2417" x2="43.354" y2="10.7417" gradientUnits="userSpaceOnUse">
<stop stop-color="#535353"/>
<stop offset="1" stop-color="#BFBFBF"/>
</linearGradient>
</defs>
</svg>
