<svg width="129" height="129" viewBox="0 0 129 129" fill="none" xmlns="http://www.w3.org/2000/svg">
<path fill-rule="evenodd" clip-rule="evenodd" d="M17.3879 44.3067C16.2163 45.4782 16.2163 47.3639 16.2163 51.1351V101.135C16.2163 103.964 16.2163 105.378 17.095 106.256C17.9737 107.135 19.3879 107.135 22.2163 107.135H106.216C109.045 107.135 110.459 107.135 111.338 106.256C112.216 105.378 112.216 103.964 112.216 101.135V51.1351C112.216 47.3639 112.216 45.4782 111.045 44.3067C109.873 43.1351 107.988 43.1351 104.216 43.1351H101.161C98.755 43.1351 97.5521 43.1351 96.5855 42.5377C95.6189 41.9403 95.081 40.8645 94.0052 38.7129L94.0052 38.7128L86.6552 24.0129C86.1173 22.9371 85.8483 22.3992 85.365 22.1005C84.8817 21.8018 84.2803 21.8018 83.0775 21.8018H45.3551C44.1523 21.8018 43.5509 21.8018 43.0676 22.1005C42.5843 22.3992 42.3153 22.9371 41.7774 24.0129L34.4275 38.7128C33.3516 40.8645 32.8137 41.9403 31.8471 42.5377C30.8805 43.1351 29.6777 43.1351 27.272 43.1351H24.2163C20.4451 43.1351 18.5595 43.1351 17.3879 44.3067ZM79.5496 69.8018C79.5496 78.2701 72.6847 85.1351 64.2163 85.1351C55.7479 85.1351 48.883 78.2701 48.883 69.8018C48.883 61.3334 55.7479 54.4684 64.2163 54.4684C72.6847 54.4684 79.5496 61.3334 79.5496 69.8018ZM85.5496 69.8018C85.5496 81.5838 75.9984 91.1351 64.2163 91.1351C52.4342 91.1351 42.883 81.5838 42.883 69.8018C42.883 58.0197 52.4342 48.4684 64.2163 48.4684C75.9984 48.4684 85.5496 58.0197 85.5496 69.8018Z" fill="white" fill-opacity="0.3"/>
</svg>
