<svg width="181" height="25" viewBox="0 0 181 25" fill="none" xmlns="http://www.w3.org/2000/svg">
<path d="M9.49844 24.513C6.52754 24.513 4.20854 23.8397 2.54142 22.4932C0.874295 21.1467 0.0300484 19.1376 0.00867508 16.4659H2.7979C2.86202 20.2062 5.09553 22.0764 9.49844 22.0764C11.3579 22.0764 12.7792 21.7131 13.7624 20.9864C14.767 20.2597 15.2692 19.2017 15.2692 17.8124C15.2692 16.7224 14.8525 15.8781 14.0189 15.2797C13.2067 14.6599 11.7747 14.1255 9.72286 13.6767L7.70308 13.2278C5.39476 12.6935 3.66352 11.9241 2.50936 10.9195C1.3552 9.8936 0.778115 8.46158 0.778115 6.62348C0.778115 4.80674 1.48344 3.36404 2.89408 2.29538C4.30472 1.20534 6.19626 0.660318 8.5687 0.660318C10.1717 0.660318 11.561 0.852678 12.7365 1.2374C13.9334 1.62212 14.8631 2.16714 15.5257 2.87246C16.1883 3.5564 16.6692 4.30447 16.9684 5.11666C17.289 5.92885 17.46 6.82653 17.4814 7.8097H14.7242C14.596 6.18533 14.0616 4.9991 13.1212 4.25104C12.2022 3.4816 10.6847 3.09688 8.5687 3.09688C6.9657 3.09688 5.72604 3.40679 4.84974 4.02662C3.9948 4.64644 3.56734 5.51206 3.56734 6.62348C3.56734 7.73489 3.94137 8.60051 4.68944 9.22034C5.41613 9.84017 6.82677 10.3852 8.92136 10.8554L10.9411 11.3042C13.4632 11.8599 15.2799 12.6614 16.3913 13.7087C17.5028 14.7347 18.0585 16.1026 18.0585 17.8124C18.0585 19.8856 17.2997 21.5207 15.7822 22.7176C14.2647 23.9145 12.1701 24.513 9.49844 24.513ZM17.2685 1.17328H35.5747V3.60984H27.8162V24H25.027V3.60984H17.2685V1.17328ZM54.676 15.5362C54.676 18.3788 53.8959 20.5803 52.3356 22.1405C50.7754 23.7008 48.5632 24.4809 45.6992 24.4809C42.8352 24.4809 40.623 23.7008 39.0628 22.1405C37.5025 20.5803 36.7224 18.3788 36.7224 15.5362V1.17328H39.4154V15.5362C39.4154 19.8749 41.51 22.0443 45.6992 22.0443C49.8884 22.0443 51.9829 19.8749 51.9829 15.5362V1.17328H54.676V15.5362ZM57.8795 1.17328H65.5739C69.0364 1.17328 71.7721 2.17783 73.7812 4.18692C75.769 6.19601 76.7628 8.99592 76.7628 12.5866C76.7628 16.1346 75.769 18.9238 73.7812 20.9543C71.7508 22.9848 69.015 24 65.5739 24H57.8795V1.17328ZM60.5725 21.5634H65.5739C68.2669 21.5634 70.3294 20.7726 71.7615 19.191C73.2149 17.6094 73.9415 15.4079 73.9415 12.5866C73.9415 9.76536 73.2149 7.5639 71.7615 5.98228C70.3294 4.40065 68.2669 3.60984 65.5739 3.60984H60.5725V21.5634ZM82.0352 24H79.3421V1.17328H82.0352V24ZM103.479 21.2108C101.47 23.4122 98.8197 24.513 95.5282 24.513C92.2367 24.513 89.5971 23.4122 87.6094 21.2108C85.6003 19.0521 84.5957 16.1774 84.5957 12.5866C84.5957 9.01729 85.6003 6.13189 87.6094 3.93044C89.5971 1.75036 92.2367 0.660318 95.5282 0.660318C98.8197 0.660318 101.47 1.75036 103.479 3.93044C105.467 6.15327 106.461 9.03867 106.461 12.5866C106.461 16.156 105.467 19.0307 103.479 21.2108ZM89.6292 19.4795C91.1039 21.1894 93.0703 22.0443 95.5282 22.0443C97.9861 22.0443 99.9525 21.1894 101.427 19.4795C102.902 17.791 103.639 15.4934 103.639 12.5866C103.639 9.67987 102.902 7.38223 101.427 5.69374C99.9525 3.98387 97.9861 3.12894 95.5282 3.12894C93.0703 3.12894 91.1039 3.98387 89.6292 5.69374C88.1544 7.38223 87.417 9.67987 87.417 12.5866C87.417 15.4934 88.1544 17.791 89.6292 19.4795ZM124.603 24.513C121.568 24.513 119.11 23.7115 117.229 22.1085C115.306 20.5055 114.344 18.2185 114.344 15.2476V1.17328H120.756V15.3117C120.756 16.5086 121.087 17.4277 121.75 18.0689C122.434 18.7101 123.385 19.0307 124.603 19.0307C125.821 19.0307 126.762 18.7101 127.424 18.0689C128.108 17.4277 128.45 16.5086 128.45 15.3117V1.17328H134.862V15.2476C134.862 18.2613 133.933 20.5589 132.073 22.1405C130.192 23.7221 127.702 24.513 124.603 24.513ZM153.352 11.7531C154.528 12.1805 155.468 12.9072 156.173 13.9332C156.9 14.9591 157.263 16.0705 157.263 17.2674C157.263 19.4047 156.537 21.0612 155.083 22.2367C153.651 23.4122 151.514 24 148.671 24H137.098V1.17328H148.447C151.226 1.17328 153.235 1.72899 154.474 2.8404C155.714 3.95181 156.334 5.33039 156.334 6.97614C156.334 9.24171 155.34 10.834 153.352 11.7531ZM147.998 6.17464H143.51V10.086H147.998C148.81 10.1501 149.377 9.84017 149.697 9.15622C150.039 8.47227 150.039 7.78833 149.697 7.10438C149.377 6.42043 148.81 6.11052 147.998 6.17464ZM143.51 18.9666H148.319C149.858 18.9666 150.627 18.2719 150.627 16.8827C150.627 15.4934 149.858 14.7988 148.319 14.7988H143.51V18.9666ZM180.846 24H174.049L173.087 21.0184H164.143L163.181 24H156.641L164.752 1.17328H172.446L180.846 24ZM167.477 10.4707L165.81 15.7285H171.356L169.657 10.4707C169.058 8.63257 168.695 7.42498 168.567 6.8479C168.033 8.62189 167.669 9.82948 167.477 10.4707Z" fill="#111111"/>
</svg>
